<?xml version="1.0"?>
<svg xmlns="http://www.w3.org/2000/svg" xmlns:xlink="http://www.w3.org/1999/xlink" version="1.1" id="Capa_1" x="0px" y="0px" width="512px" height="512px" viewBox="0 0 158.775 158.775" style="enable-background:new 0 0 158.775 158.775;" xml:space="preserve" class=""><g><g>
	<path d="M155.611,92.92l-12.866-5.943c-1.784-0.81-2.96-5.12-2.96-6.49c0-1.364,1.474-3.036,3.331-3.721l13.329-4.947   c1.852-0.679,2.783-2.734,2.101-4.57l-11.101-30.089c-0.669-1.833-2.746-2.807-4.603-2.128l-13.287,4.944   c-1.888,0.683-4.11,0.369-5.023-0.679c-0.877-1.035-2.752-5.087-1.899-6.85l5.942-12.867c0.779-1.814,0-3.915-1.766-4.749   L97.678,1.403c-1.766-0.804-3.909-0.024-4.725,1.735L87.01,16.057c-0.858,1.766-2.618,3.163-3.964,3.063   c-1.376-0.07-5.584-1.589-6.269-3.45L71.864,2.316c-0.685-1.814-2.743-2.765-4.582-2.109L37.189,11.319   c-1.857,0.685-2.807,2.737-2.125,4.601l4.914,13.356c0.691,1.809,0.393,4.059-0.658,4.944c-1.026,0.88-5.063,2.762-6.856,1.958   l-12.891-5.974c-1.763-0.804-3.897-0.024-4.719,1.771L1.418,61.132c-0.832,1.754-0.028,3.891,1.763,4.701L16.044,71.8   c1.79,0.779,3.163,2.594,3.111,3.961c-0.125,1.352-1.665,5.529-3.48,6.218L2.322,86.904c-1.808,0.657-2.771,2.709-2.104,4.566   l11.113,30.142c0.679,1.809,2.761,2.782,4.576,2.101l13.351-4.944c1.833-0.682,4.089-0.384,4.969,0.688   c0.898,1.029,2.771,5.041,1.952,6.844l-5.967,12.873c-0.834,1.766-0.024,3.891,1.735,4.73l29.161,13.427   c1.784,0.822,3.934,0.055,4.723-1.711l5.939-12.921c0.837-1.76,2.619-3.13,3.992-3.051c1.346,0.066,5.531,1.589,6.22,3.44   l4.914,13.341c0.657,1.833,2.733,2.813,4.597,2.125l30.099-11.1c1.833-0.688,2.783-2.746,2.102-4.609l-4.921-13.324   c-0.682-1.838-0.39-4.092,0.64-4.975c1.078-0.9,5.085-2.758,6.894-1.948l12.866,5.968c1.82,0.81,3.921,0.03,4.749-1.766   l13.402-29.131C158.18,95.855,157.401,93.748,155.611,92.92z M66.258,120.163c0,0,8.659-4.329,5.069-12.787   c-1.589,0.286-6.18,1.132-9.746,1.602c-3.568,0.462-6.665-1.693-7.328-3.478c-0.655-1.79,1.272-4.98,0.469-6.01   c-0.798-1.023-3.486-3.97-2.551-6.503c0.944-2.539,0.481-3.843,0.481-3.843s-5.158-1.017-5.629-2.893   c-0.469-1.875,7.045-13.423,7.045-13.423s-1.595-2.822-1.97-4.326c-0.375-1.495,0-9.579,4.88-18.782   c4.89-9.207,16.063-12.489,31-10.61c14.931,1.875,23.729,16.952,23.76,26.019c0.066,18.03-12.715,26.287-12.86,32.778   c-0.28,11.648,12.939,22.269,12.939,22.269h-45.56V120.163z" data-original="#000000" class="active-path" data-old_color="#2dc997" fill="#2dc997"/>
</g></g> </svg>
